<svg xmlns="http://www.w3.org/2000/svg" xmlns:xlink="http://www.w3.org/1999/xlink" version="1.1" width="256" height="256" viewBox="0 0 256 256" xml:space="preserve">
<desc>Created with Fabric.js 1.7.22</desc>
<defs>
</defs>
<g transform="translate(128 128) scale(0.72 0.72)" style="">
	<g style="stroke: none; stroke-width: 0; stroke-dasharray: none; stroke-linecap: butt; stroke-linejoin: miter; stroke-miterlimit: 10; fill: none; fill-rule: nonzero; opacity: 1;" transform="translate(-175.05 -175.05000000000004) scale(3.89 3.89)" >
	<path d="M 89 58.019 H 1 c -0.552 0 -1 -0.447 -1 -1 V 42.786 c 0 -3.521 2.865 -6.387 6.387 -6.387 h 77.227 c 3.521 0 6.387 2.865 6.387 6.387 v 14.233 C 90 57.571 89.553 58.019 89 58.019 z M 2 56.019 h 86 V 42.786 c 0 -2.419 -1.968 -4.387 -4.387 -4.387 H 6.387 C 3.968 38.399 2 40.367 2 42.786 V 56.019 z" style="stroke: none; stroke-width: 1; stroke-dasharray: none; stroke-linecap: butt; stroke-linejoin: miter; stroke-miterlimit: 10; fill: rgb(0,0,0); fill-rule: nonzero; opacity: 1;" transform=" matrix(1 0 0 1 0 0) " stroke-linecap="round" />
	<path d="M 89 81.778 H 78.345 c -0.553 0 -1 -0.447 -1 -1 v -9.242 h -64.69 v 9.242 c 0 0.553 -0.448 1 -1 1 H 1 c -0.552 0 -1 -0.447 -1 -1 v -23.76 c 0 -0.553 0.448 -1 1 -1 h 88 c 0.553 0 1 0.447 1 1 v 23.76 C 90 81.331 89.553 81.778 89 81.778 z M 79.345 79.778 H 88 v -21.76 H 2 v 21.76 h 8.655 v -9.242 c 0 -0.553 0.448 -1 1 -1 h 66.69 c 0.553 0 1 0.447 1 1 V 79.778 z" style="stroke: none; stroke-width: 1; stroke-dasharray: none; stroke-linecap: butt; stroke-linejoin: miter; stroke-miterlimit: 10; fill: rgb(0,0,0); fill-rule: nonzero; opacity: 1;" transform=" matrix(1 0 0 1 0 0) " stroke-linecap="round" />
	<path d="M 82.418 38.399 H 7.583 c -0.552 0 -1 -0.448 -1 -1 v -23.49 c 0 -3.136 2.551 -5.688 5.687 -5.688 H 77.73 c 3.136 0 5.688 2.551 5.688 5.688 v 23.49 C 83.418 37.951 82.971 38.399 82.418 38.399 z M 8.583 36.399 h 72.835 v -22.49 c 0 -2.033 -1.654 -3.688 -3.688 -3.688 H 12.27 c -2.033 0 -3.687 1.654 -3.687 3.688 V 36.399 z" style="stroke: none; stroke-width: 1; stroke-dasharray: none; stroke-linecap: butt; stroke-linejoin: miter; stroke-miterlimit: 10; fill: rgb(0,0,0); fill-rule: nonzero; opacity: 1;" transform=" matrix(1 0 0 1 0 0) " stroke-linecap="round" />
	<path d="M 40.787 38.399 h -25.14 c -0.552 0 -1 -0.448 -1 -1 v -9.756 c 0 -2.449 1.992 -4.441 4.441 -4.441 h 18.258 c 2.449 0 4.441 1.992 4.441 4.441 v 9.756 C 41.787 37.951 41.339 38.399 40.787 38.399 z M 16.647 36.399 h 23.14 v -8.756 c 0 -1.346 -1.095 -2.441 -2.441 -2.441 H 19.088 c -1.346 0 -2.441 1.095 -2.441 2.441 V 36.399 z" style="stroke: none; stroke-width: 1; stroke-dasharray: none; stroke-linecap: butt; stroke-linejoin: miter; stroke-miterlimit: 10; fill: rgb(0,0,0); fill-rule: nonzero; opacity: 1;" transform=" matrix(1 0 0 1 0 0) " stroke-linecap="round" />
	<path d="M 74.353 38.399 h -25.14 c -0.553 0 -1 -0.448 -1 -1 v -9.756 c 0 -2.449 1.992 -4.441 4.441 -4.441 h 18.257 c 2.449 0 4.441 1.992 4.441 4.441 v 9.756 C 75.353 37.951 74.905 38.399 74.353 38.399 z M 50.213 36.399 h 23.14 v -8.756 c 0 -1.346 -1.095 -2.441 -2.441 -2.441 H 52.654 c -1.347 0 -2.441 1.095 -2.441 2.441 V 36.399 z" style="stroke: none; stroke-width: 1; stroke-dasharray: none; stroke-linecap: butt; stroke-linejoin: miter; stroke-miterlimit: 10; fill: rgb(0,0,0); fill-rule: nonzero; opacity: 1;" transform=" matrix(1 0 0 1 0 0) " stroke-linecap="round" />
</g>
</g>
</svg>